<svg id="_x33_0" enable-background="new 0 0 64 64" height="512" viewBox="0 0 64 64" width="512" xmlns="http://www.w3.org/2000/svg"><path d="m49 27c-2.44 0-4.77.619-6.812 1.755l-1.721-2.632c3.355-2.56 5.533-6.587 5.533-11.123 0-7.72-6.28-14-14-14s-14 6.28-14 14c0 4.476 2.087 8.542 5.521 11.142l-1.713 2.62c-2.038-1.132-4.367-1.762-6.808-1.762-7.72 0-14 6.28-14 14s6.28 14 14 14c2.622 0 5.134-.716 7.336-2.076.538.939 1.258 1.771 2.136 2.429l1.528 1.147v6.5h18v-8.926c1.589.606 3.29.926 5 .926 7.72 0 14-6.28 14-14s-6.28-14-14-14zm12 14c0 2.35-.689 4.537-1.861 6.39-1.291-2.685-3.603-4.736-6.369-5.728 1.359-1.101 2.23-2.781 2.23-4.662 0-3.309-2.691-6-6-6-2.922 0-5.36 2.101-5.89 4.871-.542-.538-1.288-.871-2.11-.871-.395 0-.77.081-1.116.22-.12-.444-.338-.843-.632-1.18 2.254-3.161 5.827-5.04 9.748-5.04 6.617 0 12 5.383 12 12zm-17-.69c.338.509.751.964 1.225 1.348-.417.149-.827.318-1.225.516zm5 .69c-2.206 0-4-1.794-4-4h8c0 2.206-1.794 4-4 4zm-3.444-6c.694-1.19 1.97-2 3.444-2s2.75.81 3.444 2zm3.444 8c.675 0 1.336.081 1.977.223-.112.997-.95 1.777-1.977 1.777-1.021 0-1.856-.772-1.976-1.762.646-.141 1.302-.238 1.976-.238zm-8.482-13.146c-1.158.884-2.184 1.956-3.038 3.195-.157-.026-.316-.049-.48-.049-.395 0-.77.081-1.116.22-.345-1.275-1.501-2.22-2.884-2.22-.352 0-.686.072-1 .184v-2.184c2.468 0 4.785-.647 6.8-1.773zm-8.518-2.854c-.063 0-.124-.006-.186-.007-.417-1.158-1.515-1.993-2.814-1.993-.817 0-1.557.33-2.098.861-1.394-.653-2.621-1.546-3.638-2.622.829-2.407 2.607-4.321 4.839-5.365.401 1.786 1.993 3.126 3.897 3.126s3.496-1.34 3.897-3.125c2.223 1.04 3.997 2.942 4.83 5.336-2.19 2.326-5.288 3.789-8.727 3.789zm-4-16h8c0 2.206-1.794 4-4 4s-4-1.794-4-4zm.556-2c.694-1.19 1.97-2 3.444-2s2.75.81 3.444 2zm3.444 8c.675 0 1.336.081 1.977.223-.112.997-.95 1.777-1.977 1.777s-1.865-.78-1.977-1.777c.641-.142 1.302-.223 1.977-.223zm0-14c6.617 0 12 5.383 12 12 0 2.35-.689 4.537-1.861 6.39-1.291-2.685-3.603-4.736-6.369-5.728 1.359-1.101 2.23-2.781 2.23-4.662 0-3.309-2.691-6-6-6s-6 2.691-6 6c0 1.881.871 3.561 2.23 4.661-2.774.995-5.092 3.054-6.381 5.75-1.181-1.872-1.849-4.075-1.849-6.411 0-6.617 5.383-12 12-12zm-6.804 24.232c.274.151.552.296.838.431-.013.112-.034.222-.034.337v4.343c-.737-.938-1.582-1.774-2.519-2.487zm-10.196 1.768c4.795 0 9.089 2.825 11 7.209v1.173l-3.168 1.584c-1.35.675-2.298 1.88-2.662 3.294-.451-.234-.918-.432-1.394-.602 1.355-1.102 2.224-2.779 2.224-4.658 0-3.309-2.691-6-6-6s-6 2.691-6 6c0 1.881.871 3.561 2.23 4.661-2.766.992-5.079 3.043-6.369 5.728-1.172-1.852-1.861-4.039-1.861-6.389 0-6.617 5.383-12 12-12zm-4 8h8c0 2.206-1.794 4-4 4s-4-1.794-4-4zm.556-2c.694-1.19 1.97-2 3.444-2s2.75.81 3.444 2zm3.444 8c.673 0 1.334.077 1.978.217-.11 1-.949 1.783-1.978 1.783-1.027 0-1.865-.78-1.977-1.777.641-.142 1.302-.223 1.977-.223zm0 10c-3.439 0-6.537-1.463-8.727-3.789.833-2.394 2.607-4.296 4.83-5.336.401 1.785 1.993 3.125 3.897 3.125 1.907 0 3.501-1.343 3.899-3.132.415.194.817.42 1.204.677.008.038.011.076.019.114l1.34 6.031c.027.119.063.235.095.353-1.95 1.278-4.2 1.957-6.557 1.957zm27 8h-14v-4.381c4.337-2.118 9.662-2.118 14 0zm0-6.578c-4.715-1.993-10.294-1.833-14.887.413l-1.441-1.081c-1.146-.859-1.947-2.102-2.257-3.498l-1.34-6.032c-.05-.221-.075-.448-.075-.676 0-1.19.661-2.261 1.726-2.793l2.274-1.137v2.146c0 .998-.555 1.896-1.447 2.342l.895 1.789c1.574-.789 2.552-2.372 2.552-4.131v-13.764c0-.552.449-1 1-1s1 .448 1 1v16h2v-10c0-.552.449-1 1-1s1 .448 1 1v10h2v-8c0-.552.449-1 1-1s1 .448 1 1v8h2v-6c0-.552.449-1 1-1s1 .448 1 1zm7-1.422c-1.729 0-3.439-.396-5-1.112v-7.39c.357-.231.723-.441 1.104-.619.403 1.783 1.993 3.121 3.896 3.121 1.904 0 3.496-1.34 3.897-3.125 2.223 1.04 3.997 2.942 4.83 5.336-2.19 2.326-5.288 3.789-8.727 3.789z"/></svg>