<svg id="Layer_5" enable-background="new 0 0 64 64" height="512" viewBox="0 0 64 64" width="512" xmlns="http://www.w3.org/2000/svg"><g><path d="m49 38.4c0-5.49-4.104-10.178-9.546-10.904l-5.454-.727v-.851c1.529-.888 2.739-2.264 3.411-3.918h.589c2.206 0 4-1.794 4-4 0-.835-.259-1.609-.698-2.251l.409-1.715c.192-.805.289-1.631.289-2.455 0-5.833-4.746-10.579-10.579-10.579h-2.842c-5.833 0-10.579 4.746-10.579 10.579 0 .824.097 1.649.289 2.455l.409 1.714c-.439.642-.698 1.417-.698 2.252 0 2.206 1.794 4 4 4h.589c.672 1.654 1.882 3.03 3.411 3.918v.851l-5.454.728c-5.442.726-9.546 5.413-9.546 10.903v7.6c0 1.958.81 3.728 2.111 5h-12.111v6h2v6h2v-6h54v6h2v-6h2v-6h-14zm-2 0v12.6h-4v-14h-2v14h-6.077c.046-.193.077-.392.077-.6v-2.8c0-1.226-.856-2.251-2-2.523v-7.459c.615-.703 1-1.612 1-2.618 0-.143-.027-.277-.042-.416l5.229-1.961-.813-3.253.816.109c4.452.594 7.81 4.429 7.81 8.921zm-22 8.014 1.14-1.14c.431-.429 1.23-.301 1.501.244l.741 1.482h4.018c.331 0 .6.269.6.6v2.8c0 .331-.269.6-.6.6h-7.4zm-1.241-17.328 2.624-.35c.245.698.65 1.667 1.308 3.008-.372.264-.697.589-.96.962l-3.546-1.329zm8.241 5.914c0 1.103-.897 2-2 2s-2-.897-2-2 .897-2 2-2 2 .897 2 2zm-2 4c.347 0 .678-.058 1-.142v6.142h-1.382l-.188-.376c-.117-.234-.263-.444-.43-.633v-5.133c.322.084.653.142 1 .142zm6.241-9.914.573 2.291-3.546 1.329c-.263-.373-.588-.698-.96-.962.658-1.341 1.063-2.31 1.308-3.008zm1.759-9.086h-.069c.041-.328.069-.661.069-1v-3c1.103 0 2 .897 2 2s-.897 2-2 2zm-9.421-17h2.842c4.73 0 8.579 3.849 8.579 8.579 0 .669-.079 1.339-.234 1.99l-.182.761c-.486-.21-1.021-.33-1.584-.33h-.174c-.402-1.16-1.493-2-2.788-2h-3.015c-.552 0-1.091-.104-1.603-.309l-3.602-1.44c-.416-.167-.855-.251-1.302-.251-1.939 0-3.516 1.577-3.516 3.516v.484c-.563 0-1.098.12-1.585.331l-.182-.76c-.154-.653-.233-1.323-.233-1.992 0-4.73 3.849-8.579 8.579-8.579zm-6.579 17c-1.103 0-2-.897-2-2s.897-2 2-2v3c0 .339.028.672.069 1zm2-1v-5.484c0-.836.68-1.516 1.516-1.516.193 0 .383.036.563.108l3.6 1.44c.749.3 1.539.451 2.346.451h3.015c.529.001.96.432.96.962v4.039c0 3.309-2.691 6-6 6s-6-2.691-6-6zm6 8c.692 0 1.359-.097 2-.263v.263c0 .152-.081 1.032-1.576 4.043-.141-.015-.279-.043-.424-.043s-.283.028-.424.043c-1.495-3.011-1.576-3.891-1.576-4.043v-.263c.641.166 1.308.263 2 .263zm-17 19v-7.6c0-4.492 3.358-8.327 7.811-8.922l.816-.109-.813 3.253 5.229 1.961c-.016.14-.043.274-.043.417 0 1.005.385 1.914 1 2.618v5.396c-.066-.005-.131-.014-.197-.014-.785 0-1.522.306-2.077.86l-1.14 1.14h-4.343c-.082 0-.161.019-.243.024v-8.024h-2v8.69c-.207.141-.405.3-.586.482l-1.121 1.121 1.414 1.414 1.121-1.121c.379-.378.881-.586 1.415-.586h3.757v4h-5c-2.757 0-5-2.243-5-5zm48 9h-58v-2h15 14.4 28.6z"/><path d="m60 1h-14c-1.654 0-3 1.346-3 3v10.172c0 2.11 1.717 3.828 3.829 3.828 1.022 0 1.983-.398 2.707-1.121l1.878-1.879h8.586c1.654 0 3-1.346 3-3v-8c0-1.654-1.346-3-3-3zm1 11c0 .552-.449 1-1 1h-9.414l-2.464 2.465c-.346.345-.805.535-1.293.535-1.009 0-1.829-.82-1.829-1.828v-10.172c0-.552.449-1 1-1h14c.551 0 1 .448 1 1z"/><path d="m48 7h2v2h-2z"/><path d="m52 7h2v2h-2z"/><path d="m56 7h2v2h-2z"/><path d="m35 39h4v2h-4z"/></g></svg>